<mxfile host="app.diagrams.net" modified="2023-03-05T12:11:06.720Z" agent="5.0 (Windows NT 10.0; Win64; x64) AppleWebKit/537.36 (KHTML, like Gecko) Chrome/110.0.0.0 Safari/537.36" etag="gylUIxZ_pnbJlts1VmeQ" version="21.0.2" type="github">
  <diagram name="Page-1" id="H2cnHyvjfTZvyCyc0K7f">
    <mxGraphModel dx="1050" dy="573" grid="1" gridSize="10" guides="1" tooltips="1" connect="1" arrows="1" fold="1" page="1" pageScale="1" pageWidth="850" pageHeight="1100" math="0" shadow="0">
      <root>
        <mxCell id="0" />
        <mxCell id="1" parent="0" />
        <mxCell id="J_5y7R4Aghe3g_ORl_zN-4" style="edgeStyle=orthogonalEdgeStyle;rounded=0;orthogonalLoop=1;jettySize=auto;html=1;exitX=0.5;exitY=1;exitDx=0;exitDy=0;exitPerimeter=0;entryX=0.5;entryY=0;entryDx=0;entryDy=0;" edge="1" parent="1" source="J_5y7R4Aghe3g_ORl_zN-1" target="J_5y7R4Aghe3g_ORl_zN-2">
          <mxGeometry relative="1" as="geometry" />
        </mxCell>
        <mxCell id="J_5y7R4Aghe3g_ORl_zN-1" value="Início" style="strokeWidth=2;html=1;shape=mxgraph.flowchart.start_2;whiteSpace=wrap;" vertex="1" parent="1">
          <mxGeometry x="370" y="90" width="100" height="100" as="geometry" />
        </mxCell>
        <mxCell id="J_5y7R4Aghe3g_ORl_zN-5" style="edgeStyle=orthogonalEdgeStyle;rounded=0;orthogonalLoop=1;jettySize=auto;html=1;exitX=0.5;exitY=1;exitDx=0;exitDy=0;entryX=0.5;entryY=0;entryDx=0;entryDy=0;entryPerimeter=0;" edge="1" parent="1" source="J_5y7R4Aghe3g_ORl_zN-2" target="J_5y7R4Aghe3g_ORl_zN-3">
          <mxGeometry relative="1" as="geometry" />
        </mxCell>
        <mxCell id="J_5y7R4Aghe3g_ORl_zN-2" value="&lt;p class=&quot;MsoNormal&quot;&gt;escreva (&quot;Olá mundo!&quot;)&lt;/p&gt;" style="rounded=1;whiteSpace=wrap;html=1;absoluteArcSize=1;arcSize=14;strokeWidth=2;" vertex="1" parent="1">
          <mxGeometry x="370" y="230" width="100" height="100" as="geometry" />
        </mxCell>
        <mxCell id="J_5y7R4Aghe3g_ORl_zN-3" value="FimAlgoritmo" style="strokeWidth=2;html=1;shape=mxgraph.flowchart.start_1;whiteSpace=wrap;" vertex="1" parent="1">
          <mxGeometry x="370" y="380" width="100" height="60" as="geometry" />
        </mxCell>
      </root>
    </mxGraphModel>
  </diagram>
</mxfile>
